<svg id="visual" viewBox="0 0 1500 600" width="1500" height="600" xmlns="http://www.w3.org/2000/svg" xmlns:xlink="http://www.w3.org/1999/xlink" version="1.1"><rect x="0" y="0" width="1500" height="600" fill="#1fd9f1"></rect><defs><linearGradient id="grad1_0" x1="60%" y1="0%" x2="100%" y2="100%"><stop offset="0%" stop-color="#0c7792" stop-opacity="1"></stop><stop offset="100%" stop-color="#0c7792" stop-opacity="1"></stop></linearGradient></defs><defs><linearGradient id="grad1_1" x1="60%" y1="0%" x2="100%" y2="100%"><stop offset="0%" stop-color="#0c7792" stop-opacity="1"></stop><stop offset="100%" stop-color="#0d84a0" stop-opacity="1"></stop></linearGradient></defs><defs><linearGradient id="grad1_2" x1="60%" y1="0%" x2="100%" y2="100%"><stop offset="0%" stop-color="#0f92ae" stop-opacity="1"></stop><stop offset="100%" stop-color="#0d84a0" stop-opacity="1"></stop></linearGradient></defs><defs><linearGradient id="grad1_3" x1="60%" y1="0%" x2="100%" y2="100%"><stop offset="0%" stop-color="#0f92ae" stop-opacity="1"></stop><stop offset="100%" stop-color="#10a0bb" stop-opacity="1"></stop></linearGradient></defs><defs><linearGradient id="grad1_4" x1="60%" y1="0%" x2="100%" y2="100%"><stop offset="0%" stop-color="#13aec9" stop-opacity="1"></stop><stop offset="100%" stop-color="#10a0bb" stop-opacity="1"></stop></linearGradient></defs><defs><linearGradient id="grad1_5" x1="60%" y1="0%" x2="100%" y2="100%"><stop offset="0%" stop-color="#13aec9" stop-opacity="1"></stop><stop offset="100%" stop-color="#16bcd7" stop-opacity="1"></stop></linearGradient></defs><defs><linearGradient id="grad1_6" x1="60%" y1="0%" x2="100%" y2="100%"><stop offset="0%" stop-color="#1acae4" stop-opacity="1"></stop><stop offset="100%" stop-color="#16bcd7" stop-opacity="1"></stop></linearGradient></defs><defs><linearGradient id="grad1_7" x1="60%" y1="0%" x2="100%" y2="100%"><stop offset="0%" stop-color="#1acae4" stop-opacity="1"></stop><stop offset="100%" stop-color="#1fd9f1" stop-opacity="1"></stop></linearGradient></defs><defs><linearGradient id="grad2_0" x1="0%" y1="0%" x2="40%" y2="100%"><stop offset="0%" stop-color="#0c7792" stop-opacity="1"></stop><stop offset="100%" stop-color="#0c7792" stop-opacity="1"></stop></linearGradient></defs><defs><linearGradient id="grad2_1" x1="0%" y1="0%" x2="40%" y2="100%"><stop offset="0%" stop-color="#0d84a0" stop-opacity="1"></stop><stop offset="100%" stop-color="#0c7792" stop-opacity="1"></stop></linearGradient></defs><defs><linearGradient id="grad2_2" x1="0%" y1="0%" x2="40%" y2="100%"><stop offset="0%" stop-color="#0d84a0" stop-opacity="1"></stop><stop offset="100%" stop-color="#0f92ae" stop-opacity="1"></stop></linearGradient></defs><defs><linearGradient id="grad2_3" x1="0%" y1="0%" x2="40%" y2="100%"><stop offset="0%" stop-color="#10a0bb" stop-opacity="1"></stop><stop offset="100%" stop-color="#0f92ae" stop-opacity="1"></stop></linearGradient></defs><defs><linearGradient id="grad2_4" x1="0%" y1="0%" x2="40%" y2="100%"><stop offset="0%" stop-color="#10a0bb" stop-opacity="1"></stop><stop offset="100%" stop-color="#13aec9" stop-opacity="1"></stop></linearGradient></defs><defs><linearGradient id="grad2_5" x1="0%" y1="0%" x2="40%" y2="100%"><stop offset="0%" stop-color="#16bcd7" stop-opacity="1"></stop><stop offset="100%" stop-color="#13aec9" stop-opacity="1"></stop></linearGradient></defs><defs><linearGradient id="grad2_6" x1="0%" y1="0%" x2="40%" y2="100%"><stop offset="0%" stop-color="#16bcd7" stop-opacity="1"></stop><stop offset="100%" stop-color="#1acae4" stop-opacity="1"></stop></linearGradient></defs><defs><linearGradient id="grad2_7" x1="0%" y1="0%" x2="40%" y2="100%"><stop offset="0%" stop-color="#1fd9f1" stop-opacity="1"></stop><stop offset="100%" stop-color="#1acae4" stop-opacity="1"></stop></linearGradient></defs><g transform="translate(1500, 0)"><path d="M0 540C-79.2 537.4 -158.4 534.9 -202.8 489.7C-247.2 444.4 -256.8 356.6 -308.3 308.3C-359.8 260 -453.3 251.4 -498.9 206.6C-544.5 161.9 -542.3 80.9 -540 0L0 0Z" fill="#1cd2ea"></path><path d="M0 472.5C-69.3 470.3 -138.6 468 -177.5 428.4C-216.3 388.9 -224.7 312 -269.8 269.8C-314.8 227.5 -396.6 220 -436.5 180.8C-476.4 141.6 -474.5 70.8 -472.5 0L0 0Z" fill="#18c3dd"></path><path d="M0 405C-59.4 403.1 -118.8 401.2 -152.1 367.2C-185.4 333.3 -192.6 267.4 -231.2 231.2C-269.9 195 -340 188.6 -374.2 155C-408.4 121.4 -406.7 60.7 -405 0L0 0Z" fill="#14b5d0"></path><path d="M0 337.5C-49.5 335.9 -99 334.3 -126.8 306C-154.5 277.8 -160.5 222.8 -192.7 192.7C-224.9 162.5 -283.3 157.1 -311.8 129.2C-340.3 101.2 -338.9 50.6 -337.5 0L0 0Z" fill="#11a7c2"></path><path d="M0 270C-39.6 268.7 -79.2 267.4 -101.4 244.8C-123.6 222.2 -128.4 178.3 -154.1 154.1C-179.9 130 -226.6 125.7 -249.4 103.3C-272.3 80.9 -271.1 40.5 -270 0L0 0Z" fill="#0f99b5"></path><path d="M0 202.5C-29.7 201.5 -59.4 200.6 -76.1 183.6C-92.7 166.7 -96.3 133.7 -115.6 115.6C-134.9 97.5 -170 94.3 -187.1 77.5C-204.2 60.7 -203.3 30.4 -202.5 0L0 0Z" fill="#0e8ba7"></path><path d="M0 135C-19.8 134.4 -39.6 133.7 -50.7 122.4C-61.8 111.1 -64.2 89.1 -77.1 77.1C-90 65 -113.3 62.9 -124.7 51.7C-136.1 40.5 -135.6 20.2 -135 0L0 0Z" fill="#0d7e99"></path><path d="M0 67.5C-9.9 67.2 -19.8 66.9 -25.4 61.2C-30.9 55.6 -32.1 44.6 -38.5 38.5C-45 32.5 -56.7 31.4 -62.4 25.8C-68.1 20.2 -67.8 10.1 -67.5 0L0 0Z" fill="#0c7792"></path></g><g transform="translate(0, 600)"><path d="M0 -540C68.1 -519.1 136.3 -498.2 193.3 -466.6C250.2 -434.9 296.1 -392.5 350 -350C403.9 -307.5 465.9 -265 498.9 -206.6C531.9 -148.3 536 -74.2 540 0L0 0Z" fill="#1cd2ea"></path><path d="M0 -472.5C59.6 -454.2 119.2 -435.9 169.1 -408.2C219 -380.5 259.1 -343.4 306.3 -306.3C353.4 -269.1 407.7 -231.9 436.5 -180.8C465.4 -129.8 469 -64.9 472.5 0L0 0Z" fill="#18c3dd"></path><path d="M0 -405C51.1 -389.3 102.2 -373.7 144.9 -349.9C187.7 -326.2 222.1 -294.4 262.5 -262.5C302.9 -230.7 349.4 -198.7 374.2 -155C398.9 -111.2 402 -55.6 405 0L0 0Z" fill="#14b5d0"></path><path d="M0 -337.5C42.6 -324.4 85.2 -311.4 120.8 -291.6C156.4 -271.8 185.1 -245.3 218.8 -218.8C252.5 -192.2 291.2 -165.6 311.8 -129.2C332.4 -92.7 335 -46.3 337.5 0L0 0Z" fill="#11a7c2"></path><path d="M0 -270C34.1 -259.6 68.1 -249.1 96.6 -233.3C125.1 -217.5 148.1 -196.2 175 -175C202 -153.8 232.9 -132.5 249.4 -103.3C266 -74.2 268 -37.1 270 0L0 0Z" fill="#0f99b5"></path><path d="M0 -202.5C25.5 -194.7 51.1 -186.8 72.5 -175C93.8 -163.1 111 -147.2 131.3 -131.3C151.5 -115.3 174.7 -99.4 187.1 -77.5C199.5 -55.6 201 -27.8 202.5 0L0 0Z" fill="#0e8ba7"></path><path d="M0 -135C17 -129.8 34.1 -124.6 48.3 -116.6C62.6 -108.7 74 -98.1 87.5 -87.5C101 -76.9 116.5 -66.2 124.7 -51.7C133 -37.1 134 -18.5 135 0L0 0Z" fill="#0d7e99"></path><path d="M0 -67.5C8.5 -64.9 17 -62.3 24.2 -58.3C31.3 -54.4 37 -49.1 43.8 -43.8C50.5 -38.4 58.2 -33.1 62.4 -25.8C66.5 -18.5 67 -9.3 67.5 0L0 0Z" fill="#0c7792"></path></g></svg>